<svg width="1440" height="1030" viewBox="0 0 1440 1030" fill="none" xmlns="http://www.w3.org/2000/svg">
<g clip-path="url(#clip0_2012_3091)">
<path opacity="0.1" d="M-624.383 1367.73H1420.82M-573.699 1240.29H1433.99M-524.841 1117.46H1446.67M-477.701 998.977H1458.91M-432.212 884.613H1470.73M-388.279 774.156H1482.14M-345.81 667.417H1493.16M-304.764 564.208H1503.81M-265.033 464.342H1514.14M-226.591 367.684H1524.11M-189.343 274.059H1533.79M-153.263 183.347H1543.16M-118.283 95.4H1552.24M-84.351 10.1108H1561.05M-51.4253 -72.6681H1569.6M-19.4526 -153.017H1577.89M11.5805 -231.058H1585.96M41.7545 -306.898H1593.79M71.0695 -380.603H1601.4M99.5791 -452.281H1608.81M1545.11 -522L1307.91 1500M1474.23 -522L1208.68 1500M1403.33 -522L1109.43 1500M1332.45 -522L1010.18 1500M1261.55 -522L910.936 1500M1190.66 -522L811.69 1500M1119.78 -522L712.443 1500M1048.88 -522L613.196 1500M977.996 -522L513.949 1500M907.111 -522L414.702 1500M836.213 -522L315.455 1500M765.328 -522L216.208 1500M694.43 -522L116.962 1500M623.545 -522L17.7146 1500M552.66 -522L-81.5323 1500M481.762 -522L-180.779 1500M410.877 -522L-280.026 1500M339.978 -522L-379.259 1500M269.094 -522L-478.506 1500M198.209 -522L-577.753 1500M127.31 -522H1616L1407.16 1500H-677L127.31 -522Z" stroke="url(#paint0_radial_2012_3091)" stroke-width="1.14425" stroke-miterlimit="10"/>
</g>
<defs>
<radialGradient id="paint0_radial_2012_3091" cx="0" cy="0" r="1" gradientUnits="userSpaceOnUse" gradientTransform="translate(469.5 489) rotate(141.956) scale(911.39 706.043)">
<stop stop-color="#5C6D6F"/>
<stop offset="1" stop-color="#5C6D6F" stop-opacity="0.2"/>
</radialGradient>
<clipPath id="clip0_2012_3091">
<rect width="1440" height="1030" fill="white"/>
</clipPath>
</defs>
</svg>
