<svg width="127" height="29" viewBox="0 0 127 29" fill="none" xmlns="http://www.w3.org/2000/svg">
<path d="M21.4016 28.4437L13.1524 28.2912C10.4813 28.2381 7.80377 28.3442 5.18527 27.7937C1.20172 26.9712 0.919528 22.9385 0.624208 19.5558C0.217322 14.8001 0.374826 9.95823 1.14266 5.24235C1.5758 2.59588 3.28209 1.01729 5.92029 0.844834C14.8258 0.221355 23.7905 0.294315 32.6763 0.586156C33.6148 0.612687 34.5598 0.758608 35.4851 0.924427C40.0528 1.73362 40.1643 6.30359 40.4596 10.1506C40.755 14.0374 40.6303 17.9441 40.0659 21.8043C39.6131 25.0013 38.7468 27.681 35.0914 27.9396C30.5106 28.2779 26.0349 28.5498 21.441 28.4636C21.441 28.4437 21.4148 28.4437 21.4016 28.4437ZM16.5518 20.3518C20.0038 18.3487 23.3901 16.3787 26.8224 14.3889C23.3639 12.3858 19.9841 10.4159 16.5518 8.42607V20.3518Z" fill="#5C6D6F"/>
<path d="M106.627 24.809C106.47 25.459 106.332 25.9697 106.194 26.5136H102.965V1.34204H106.732V10.628C106.929 10.3759 107.028 10.2698 107.113 10.1571C107.756 9.26163 108.589 8.67794 109.666 8.45242C111.379 8.11415 112.842 8.87692 113.361 10.5418C113.695 11.5765 113.912 12.6842 113.938 13.7653C113.991 16.5445 113.951 19.317 113.853 22.0961C113.813 22.9451 113.557 23.814 113.236 24.61C112.179 27.2366 108.727 27.6345 107.014 25.3595C106.909 25.2202 106.811 25.0676 106.627 24.809ZM106.811 17.8843V22.4875C106.811 23.237 107.205 23.6946 107.946 23.8671C108.675 24.0395 109.265 23.7543 109.561 23.0712C109.685 22.7859 109.81 22.4875 109.817 22.189C109.889 19.3767 109.955 16.5644 109.974 13.7454C109.974 13.2214 109.85 12.6775 109.692 12.1668C109.397 11.2448 108.583 10.9729 107.782 11.5102C107.179 11.9214 106.811 12.5051 106.811 13.2811V17.8843ZM96.5732 8.8106H100.517V26.5269H97.4395C97.328 25.8569 97.2164 25.1671 97.0851 24.3579C96.8751 24.6697 96.7504 24.8686 96.6192 25.0676C95.5954 26.56 94.1451 27.0707 92.4322 26.7988C90.9687 26.56 90.0893 25.4192 89.8925 23.5487C89.8334 22.9916 89.8071 22.4278 89.8071 21.8706C89.794 17.7251 89.8071 13.5663 89.8071 9.42081V8.79733H93.7972V9.52031C93.7972 13.5265 93.7841 17.5261 93.8104 21.5323C93.8104 22.1028 93.8694 22.6931 93.9679 23.2635C94.0794 23.8472 94.4994 24.0594 95.0638 24.0196C95.976 23.9467 96.6061 23.2635 96.6061 22.3482V9.59327C96.5732 9.33459 96.5732 9.09581 96.5732 8.8106ZM69.4169 8.79733H73.3808V9.54684C73.3808 13.5332 73.3677 17.5128 73.3939 21.4859C73.3939 22.0563 73.4464 22.6467 73.5645 23.2038C73.7155 23.8605 74.0961 24.0727 74.7458 23.9865C75.6449 23.8605 76.1896 23.2303 76.1962 22.3084V9.6198V8.82386H80.1403V26.5269H77.0756C76.964 25.8702 76.8524 25.1937 76.7081 24.338C76.5112 24.6365 76.3996 24.809 76.288 24.988C75.2643 26.507 73.827 27.0641 72.0748 26.7922C70.6704 26.5799 69.8107 25.5319 69.5482 23.814C69.476 23.2768 69.4235 22.7461 69.4235 22.2089C69.4104 17.9042 69.4104 13.5796 69.4104 9.27489L69.4169 8.79733ZM67.3825 18.2557C67.3694 18.8527 67.33 19.4496 67.2972 20.0466C67.1462 21.8375 67.0741 24.3778 65.6434 25.6845C64.7312 26.507 63.5762 26.8054 62.3818 26.8452C61.8502 26.8585 61.312 26.8585 60.7805 26.7855C58.267 26.4008 57.0988 25.2799 56.6788 22.4875C56.1997 19.2639 56.1603 15.9873 56.7313 12.7638C57.3219 9.42745 59.3564 8.2468 62.5196 8.46569C65.4728 8.67794 66.7919 10.6346 67.1397 13.4204C67.33 15.0189 67.4219 16.6373 67.3825 18.2557ZM63.3662 17.6455C63.3662 16.5113 63.3924 15.3705 63.353 14.2362C63.3268 13.5796 63.2415 12.9163 63.1036 12.2663C62.9461 11.5168 62.4736 11.1586 61.883 11.1719C61.3055 11.1851 60.8986 11.5433 60.6886 12.2398C60.6164 12.4984 60.5376 12.7638 60.5376 13.0224C60.5376 14.8 60.5245 16.5843 60.5114 18.3619C60.4983 20.0201 60.2883 21.7579 60.8067 23.3431C60.9642 23.8273 61.3711 24.0926 61.9027 24.0926C62.4211 24.0926 62.7624 23.8339 62.9527 23.3696C63.1036 23.0115 63.2349 22.6201 63.2349 22.2354C63.2808 20.7099 63.3662 19.1777 63.3662 17.6455ZM50.8905 14.3092C51.2383 12.5913 51.5665 10.9132 51.9274 9.22846C52.3803 7.08606 52.8856 4.94366 53.3318 2.79463C53.4434 2.27064 53.6534 2.14461 54.1456 2.15788C55.2022 2.19767 56.2785 2.17114 57.4073 2.17114C57.0397 3.5375 56.6788 4.83754 56.3244 6.11767C55.2022 10.1372 54.08 14.1699 52.9709 18.2027C52.8856 18.5144 52.8462 18.8527 52.8462 19.1843C52.8331 21.3864 52.8462 23.5819 52.8462 25.784V26.5003H48.9939C48.9808 26.3013 48.9545 26.1024 48.9545 25.9034C48.9545 24.6564 48.8561 23.4028 48.9677 22.1691C49.2499 19.2042 48.318 16.4781 47.5633 13.7189C46.5657 10.0708 45.5551 6.40951 44.5576 2.76146C44.5051 2.58901 44.4854 2.40329 44.4329 2.19104H48.3639C49.1908 6.21716 50.0243 10.2433 50.8905 14.3092ZM126.263 18.9323H119.621C119.694 20.2787 119.72 21.5589 119.858 22.8257C119.956 23.7079 120.435 24.086 121.19 24.0926C121.977 24.1059 122.437 23.7079 122.62 22.8324C122.68 22.5472 122.719 22.2619 122.745 21.9701C122.771 21.7114 122.785 21.4328 122.804 21.0614C123.926 21.1211 125.022 21.1874 126.105 21.2339C126.735 23.1242 125.6 25.5518 123.69 26.3013C122.187 26.8983 120.645 26.8983 119.109 26.4406C117.974 26.1024 117.128 25.3727 116.747 24.2518C116.392 23.2038 116.058 22.1094 115.986 21.015C115.789 18.3154 115.717 15.5893 116.123 12.8831C116.196 12.4321 116.32 12.001 116.458 11.5632C117.009 9.75909 118.21 8.65141 120.068 8.46569C121.078 8.3662 122.122 8.40599 123.119 8.57845C124.734 8.86366 125.593 10.0377 125.967 11.5765C126.138 12.2995 126.263 13.0423 126.289 13.7786C126.296 15.4699 126.263 17.148 126.263 18.9323ZM122.489 16.6042C122.489 15.271 122.502 14.0174 122.476 12.7571C122.476 12.4586 122.365 12.1469 122.253 11.8617C122.03 11.3045 121.564 11.152 121.006 11.152C120.448 11.152 120.094 11.4372 119.956 11.9479C119.536 13.4801 119.674 15.0454 119.687 16.6174C120.691 16.6042 121.603 16.6042 122.489 16.6042Z" fill="#5C6D6F"/>
<path d="M83.185 5.42139H79.2803V2.22437H90.9355V5.40149H87.057V26.5005H83.1916L83.185 5.42139Z" fill="#5C6D6F"/>
</svg>
