<svg width="138" height="27" viewBox="0 0 138 27" fill="none" xmlns="http://www.w3.org/2000/svg">
<path d="M9.35204 26.3836H4.20047V13.4042H0.691132V9.17834H4.20034V6.17135C4.20034 2.60806 5.75246 0.0524902 10.8901 0.0524902C11.9767 0.0524902 13.6826 0.273849 13.6826 0.273849V4.19778H11.8908C10.0651 4.19778 9.35231 4.75905 9.35231 6.31077V9.17834H13.6143L13.2347 13.4042H9.35218L9.35204 26.3836ZM21.1724 8.84064C21.0974 8.84064 21.0201 8.84341 20.9437 8.84534C16.1669 8.84534 13.9814 12.4769 13.9814 17.632C13.9814 24.126 16.8163 26.7251 20.981 26.7251C23.3638 26.7251 24.9294 25.7114 25.8809 23.8198V26.3854H30.7808V9.18014H25.8809V11.8261C25.104 10.1237 23.4947 8.86082 21.1724 8.84064ZM22.4183 12.9062C24.4246 12.9062 25.6288 14.3206 25.6288 16.7264L25.6335 19.1836C25.6335 20.805 24.6388 22.7021 22.4183 22.7021C19.0045 22.7021 19.0957 18.9766 19.0957 17.7357C19.0957 13.5618 20.9146 12.9062 22.4183 12.9062ZM32.7596 17.7837C32.7596 15.6929 32.6606 8.85183 41.4793 8.85183C45.0193 8.85183 46.4974 9.98944 46.4974 9.98944L45.3094 13.7137C45.3094 13.7137 43.8331 12.8921 41.9095 12.8921C39.4458 12.8921 37.8737 14.3356 37.8737 16.8755L37.8764 18.6966C37.8764 21.1371 39.3933 22.7662 41.9146 22.7662C43.667 22.7662 45.2822 21.9369 45.2822 21.9369L46.4672 25.5833C46.4672 25.5833 45.1156 26.7281 41.504 26.7281C33.1073 26.7281 32.7597 20.5903 32.7597 17.7837H32.7596ZM75.2272 8.84534C80.0041 8.84534 82.2241 12.4769 82.2241 17.632C82.2241 24.126 79.389 26.7251 75.2243 26.7251C72.8415 26.7251 71.08 25.7116 70.1285 23.8198V26.3854L65.2903 26.3835V0.575626L70.4272 0.122822V11.593C71.1686 9.58624 73.6052 8.84534 75.2273 8.84534H75.2272ZM73.787 12.9062C71.7807 12.9062 70.4272 14.3206 70.4272 16.7264L70.4224 19.1836C70.4194 20.805 71.3598 22.7021 73.787 22.7021C77.2008 22.7021 77.1096 18.9766 77.1096 17.7357C77.1096 13.5618 75.2909 12.9062 73.787 12.9062ZM55.4104 8.85957C49.9924 8.85957 47.1321 11.8451 47.1321 17.1508V18.1366C47.1321 25.0229 51.1489 26.7958 55.9377 26.7958C60.5925 26.7958 62.6994 25.48 62.6994 25.48L61.7382 21.9758C61.7382 21.9758 59.2598 23.0416 56.5536 23.0416C53.7482 23.0416 52.5417 22.3189 52.2325 19.5941H63.1101V16.7829C63.1101 11.0276 59.8999 8.85943 55.4103 8.85943L55.4104 8.85957ZM55.541 12.3684C57.4165 12.3684 58.6317 13.5308 58.565 16.2264H52.2419C52.3516 13.3893 53.6621 12.3686 55.541 12.3686V12.3684ZM92.4669 8.83594C86.903 8.83594 83.9739 12.0049 83.9739 17.6838C83.9739 25.4755 89.0231 26.7298 92.4762 26.7298C97.5314 26.7298 100.895 23.9791 100.895 17.7545C100.895 11.2759 97.1131 8.83594 92.4669 8.83594ZM92.3969 12.9203C94.8435 12.9203 95.8129 14.7709 95.8129 16.8774V18.6885C95.8129 21.2403 94.4564 22.7163 92.3876 22.7163C90.4529 22.7163 89.0931 21.3356 89.0931 18.6885V16.8774C89.0931 14.0542 90.7111 12.9203 92.3969 12.9203ZM111.128 8.83594C105.564 8.83594 102.635 12.0049 102.635 17.6838C102.635 25.4755 107.684 26.7298 111.138 26.7298C116.193 26.7298 119.556 23.9791 119.556 17.7545C119.556 11.2759 115.774 8.83594 111.128 8.83594ZM111.058 12.9203C113.505 12.9203 114.474 14.7709 114.474 16.8774V18.6885C114.474 21.2403 113.118 22.7163 111.049 22.7163C109.114 22.7163 107.754 21.3356 107.754 18.6885V16.8774C107.754 14.0542 109.372 12.9203 111.058 12.9203ZM121.497 26.3836V0.575626L126.649 0.122822V17.421L131.76 9.17834H137.201L131.869 17.7153L137.406 26.3836H131.95L126.649 17.9668V26.3836H121.497Z" fill="#5C6D6F"/>
</svg>
