<svg width="142" height="35" viewBox="0 0 142 35" fill="none" xmlns="http://www.w3.org/2000/svg">
<path d="M15.4541 0.38376C13.6275 0.590649 10.8876 1.45003 9.32874 2.30942C5.14021 4.5852 2.30587 8.13414 0.888697 12.8607C0.605263 13.7838 0.27459 16.2983 0.290336 17.476C0.290336 18.5104 0.605263 21.0408 0.794219 21.6456C0.888697 21.932 1.0934 22.6164 1.26661 23.1415C1.55004 24.0327 2.91998 26.8337 3.15617 27.0247C3.20341 27.0724 3.45535 27.3907 3.69155 27.7567C4.27416 28.632 5.80156 30.1917 6.95104 31.0829C7.83283 31.7672 10.3208 33.2154 10.6357 33.2313C10.7144 33.2313 10.7302 32.6266 10.6829 31.8309C10.5727 30.0644 10.9034 27.6613 11.612 25.2104C11.7379 24.7966 11.8324 24.2556 11.8324 24.0168C11.8324 23.7781 11.8954 23.5235 11.9741 23.4439C12.0529 23.3484 12.1946 22.8869 12.2733 22.4095C12.3678 21.932 12.5252 21.2 12.6355 20.7862C12.7929 20.1655 12.7772 19.9268 12.5567 19.2584C12.2418 18.2399 12.2261 16.5847 12.541 15.789C13.2811 13.8952 14.0999 13.179 15.4856 13.179C17.1547 13.179 17.9577 14.4522 17.6428 16.5847C17.5011 17.5555 17.1074 19.0833 16.8555 19.5608C16.7925 19.704 16.6823 20.1019 16.635 20.4361C16.5721 20.7862 16.4461 21.2795 16.3673 21.5501C16.1469 22.1708 16.5721 23.3803 17.1389 23.8418C17.6743 24.2715 18.7923 24.3988 19.8158 24.1601C20.5401 24.0009 20.8393 23.8099 21.5951 23.0779C22.4927 22.1867 23.1698 21.1522 23.1698 20.6589C23.1698 20.5156 23.2485 20.3247 23.343 20.2292C23.7839 19.7836 24.0201 16.3142 23.6894 14.8501C23.3272 13.2427 22.2092 11.6672 20.7606 10.7441C19.3119 9.80516 16.3201 9.53461 14.4778 10.1712C13.1866 10.6168 12.0371 11.3648 11.297 12.2401C10.6357 13.0199 9.94284 14.2931 9.94284 14.7387C9.94284 14.8978 9.86411 15.1047 9.76963 15.2002C9.67516 15.2957 9.56493 15.9004 9.51769 16.5529C9.43896 17.5237 9.50195 17.9693 9.78538 18.9242C9.97434 19.5767 10.3208 20.3406 10.5255 20.627C10.9506 21.2 10.9506 21.4228 10.5569 22.9506C10.4467 23.3643 10.2578 23.7463 10.1475 23.794C9.15553 24.176 7.13999 21.7729 6.4629 19.3857C6.21096 18.4786 6.19521 15.2479 6.44716 14.2931C6.55738 13.8952 6.74634 13.3541 6.87231 13.0676C6.99828 12.7971 7.1085 12.5265 7.1085 12.4629C7.1085 12.3992 7.42343 11.8581 7.81709 11.2693C9.86411 8.15005 13.1866 6.49494 17.3909 6.49494C18.3514 6.49494 19.3434 6.5586 19.6111 6.63817C21.7841 7.32249 22.3667 7.5453 23.217 8.05456C24.8704 9.05718 26.0671 10.4258 27.2638 12.7175C27.3425 12.8607 27.4528 13.2427 27.5 13.561C27.563 13.8793 27.6732 14.1817 27.752 14.2294C27.8307 14.2771 27.8937 15.3116 27.8937 16.537C27.8937 18.7491 27.7362 19.6403 27.0749 21.4546C26.3348 23.4439 24.4295 25.6401 22.6974 26.4995C21.7054 26.9769 19.8473 27.5021 19.1072 27.5021C18.1152 27.5021 16.1626 26.6746 15.6273 26.0062C15.3753 25.7038 15.1391 25.8152 15.1391 26.2449C15.1391 26.404 15.0761 26.6746 14.9817 26.8337C14.9029 26.9769 14.7612 27.4225 14.6825 27.8204C14.2258 29.9211 13.5802 31.624 12.5882 33.2154C12.289 33.7088 12.541 33.9952 13.3598 34.1066C13.7692 34.1703 14.3203 34.2817 14.5723 34.3613C15.2021 34.5682 18.6191 34.5363 19.7686 34.3294C20.8078 34.1385 22.4927 33.661 23.2485 33.3427C28.0039 31.3693 31.6098 27.3589 33.1687 22.2503C34.0033 19.5289 34.0505 16.3619 33.2947 13.179C33.0427 12.1446 32.964 11.9059 32.2869 10.3144C31.3106 7.9909 29.1061 5.26952 26.8702 3.59849C24.9491 2.16619 23.0595 1.33863 20.115 0.622478C19.2962 0.431504 16.3831 0.272359 15.4541 0.38376ZM57.4496 6.1289C56.8354 6.22439 55.8592 7.24292 55.6072 8.03865C55.3395 8.91395 55.6072 9.8529 56.363 10.585C58.0322 12.2242 60.9295 10.6805 60.5673 8.32511C60.3469 6.82914 58.9927 5.87427 57.4496 6.1289ZM40.286 7.06786C40.1443 7.22701 40.1443 26.4199 40.3018 26.6427C40.3805 26.77 41.0576 26.8178 42.3803 26.8019L44.3486 26.786L44.4273 23.5553C44.4903 20.9294 44.5533 20.2928 44.7423 20.1814C44.8682 20.1019 45.939 20.0223 47.1199 20.0223C49.7024 20.0223 50.7888 19.8313 51.9698 19.1947C53.513 18.3513 54.4105 17.1418 54.8986 15.2161C55.1978 14.0066 55.1978 13.1313 54.8829 11.89C54.5995 10.7759 54.4735 10.5054 53.7964 9.59827C52.9618 8.46834 52.1115 7.84767 50.7259 7.35432C49.9543 7.09969 49.3087 7.05195 45.1359 7.0042C42.5378 6.97238 40.349 7.0042 40.286 7.06786ZM48.9308 11.0306C49.9858 11.3648 50.5054 11.8422 50.7416 12.7016C51.0408 13.8315 50.8203 14.8819 50.159 15.5185C49.4347 16.2028 48.7891 16.3619 46.6791 16.3619C45.2934 16.3619 44.8682 16.3142 44.6793 16.1073C44.4746 15.9163 44.4273 15.4548 44.4273 13.6406C44.4273 10.7759 44.4116 10.7919 46.6003 10.7919C47.5451 10.7919 48.4584 10.8873 48.9308 11.0306ZM76.5499 10.0916C76.5499 11.1897 76.4711 12.2242 76.3924 12.3992C76.2822 12.6061 76.0617 12.7016 75.6838 12.7016C75.4004 12.7016 75.1327 12.7653 75.1012 12.8607C75.0854 12.9403 75.0854 13.4973 75.1327 14.0862C75.2114 15.1365 75.2272 15.1524 75.6996 15.2638C75.9672 15.3116 76.2664 15.4071 76.3609 15.4707C76.5026 15.5503 76.5499 16.8076 76.5499 19.9905C76.5499 24.2715 76.5656 24.4306 76.912 25.0672C77.6364 26.4199 78.7701 26.8974 81.0691 26.8337L82.6122 26.786L82.6594 25.2423L82.7067 23.6826H82.313C81.7147 23.6826 80.8329 23.2052 80.7384 22.8232C80.6911 22.6323 80.6439 20.9453 80.6439 19.0515C80.6439 16.4415 80.6911 15.5662 80.8486 15.4389C80.9588 15.3434 81.3997 15.2479 81.8249 15.2161L82.6122 15.1684V12.7812L81.7462 12.7334C81.2738 12.7016 80.8329 12.5902 80.7699 12.4947C80.7069 12.3833 80.6439 11.3489 80.6439 10.1871V8.08639H76.5499V10.0916ZM135.079 8.18188C135.016 8.24554 134.969 9.24815 134.969 10.4099C134.969 12.6698 134.953 12.7016 134.087 12.7016C133.693 12.7016 133.693 12.7175 133.741 13.927C133.788 15.1365 133.804 15.1684 134.213 15.2161C134.433 15.2479 134.701 15.3593 134.78 15.4548C134.874 15.5662 134.969 17.4919 135.016 19.9427C135.063 22.2981 135.142 24.4465 135.205 24.7012C135.394 25.4014 136.37 26.2926 137.299 26.595C138.339 26.9451 140.984 26.9769 141.252 26.6427C141.378 26.4995 141.425 25.9266 141.393 25.099L141.346 23.7622L140.795 23.6667C140.197 23.5712 139.519 23.2529 139.346 22.9824C139.283 22.8869 139.22 21.1522 139.22 19.1311C139.22 14.9774 139.126 15.2479 140.496 15.2479C141.393 15.2479 141.472 15.0888 141.393 13.6406L141.346 12.7812L140.323 12.7016L139.299 12.622L139.22 10.394L139.142 8.16596L137.158 8.11822C136.071 8.10231 135.142 8.13414 135.079 8.18188ZM68.7554 12.3197C67.9838 12.5265 67.0863 13.0517 66.4879 13.6724C65.7636 14.4363 65.5747 14.3885 65.4959 13.4178L65.4487 12.7812H61.5121V26.786L63.4961 26.8178C65.4487 26.8655 65.4959 26.8496 65.5904 26.4995C65.6376 26.3085 65.6849 24.2874 65.6849 21.9957C65.6849 17.46 65.7006 17.3327 66.6297 16.4415C67.0391 16.0437 67.2595 15.9641 68.1413 15.9163L69.1648 15.8527L69.7789 16.5052C70.5033 17.2691 70.4245 16.537 70.4875 23.1256C70.5033 24.8762 70.519 26.4199 70.5348 26.5791C70.5662 26.8019 70.8182 26.8337 72.5818 26.8019L74.5816 26.786V15.614L74.1249 14.7068C73.3376 13.1313 72.1251 12.3833 70.2671 12.2878C69.6057 12.2719 68.9286 12.2719 68.7554 12.3197ZM88.4383 12.3197C86.7377 12.7812 85.9189 13.2427 84.8639 14.2931C83.4468 15.7413 82.8012 17.4282 82.8012 19.704C82.8169 23.6985 85.2891 26.6586 88.9422 27.0088C92.06 27.3111 94.4692 26.3881 96.0123 24.3033C96.2328 24.0009 96.7052 23.0301 96.7052 22.8551C96.7052 22.7914 95.7919 22.7278 94.6897 22.7278H92.6741L92.2017 23.2211C91.6506 23.794 90.879 24.1601 90.1704 24.1601C89.4619 24.1601 88.3754 23.6508 87.8715 23.1097C87.4936 22.68 86.9424 21.4387 86.9424 21.009C86.9424 20.8658 88.0919 20.818 91.7923 20.818C94.4534 20.818 96.7052 20.7544 96.8154 20.6907C97.0516 20.5316 96.8311 18.0011 96.4847 17.0781C95.7761 15.1524 94.4377 13.5292 93.0835 12.9562C92.6899 12.7971 92.2332 12.5902 92.0758 12.5106C91.7451 12.3356 88.9422 12.1923 88.4383 12.3197ZM91.5089 15.8049C92.123 16.2346 92.6584 17.2532 92.5796 17.8261C92.5324 18.1921 92.5009 18.1921 89.8398 18.2399C86.7692 18.2876 86.7535 18.2717 87.2416 17.1258C87.5881 16.3301 88.2809 15.614 88.9265 15.4071C89.6666 15.1684 90.8633 15.3593 91.5089 15.8049ZM111.743 12.3197C109.916 12.813 108.641 13.6246 107.649 14.8819C107.255 15.3912 106.94 15.8686 106.94 15.9641C106.94 16.0437 106.83 16.3301 106.688 16.6007C106.547 16.8553 106.342 17.651 106.232 18.3672C105.681 21.7729 107.192 24.9558 110.027 26.3881L111.113 26.9451H113.396C115.758 26.9451 115.963 26.8974 117.412 26.1176C118.467 25.5446 120.199 23.3166 119.931 22.871C119.868 22.7914 118.971 22.7278 117.916 22.7278H115.979L115.585 23.1893C114.01 24.9876 111.066 24.0646 110.436 21.566C110.342 21.2318 110.341 20.9453 110.42 20.8817C110.499 20.8339 112.751 20.8021 115.443 20.818C119.285 20.818 120.325 20.7862 120.34 20.627C120.482 18.6377 119.537 15.6935 118.356 14.4204C117.695 13.7042 116.546 12.9085 115.979 12.7653C115.727 12.7016 115.443 12.5902 115.333 12.5106C115.113 12.3356 112.231 12.1923 111.743 12.3197ZM114.199 15.423C114.908 15.6776 115.727 16.5688 115.853 17.2532C116.042 18.2876 116.057 18.2876 113.129 18.2399C110.499 18.1921 110.483 18.1921 110.436 17.8261C110.373 17.3805 110.924 16.2824 111.397 15.8686C112.074 15.2957 113.255 15.1047 114.199 15.423ZM125.442 12.3197C122.214 13.0995 121.049 14.2612 121.033 16.6802C121.033 19.2902 122.324 20.3883 126.151 21.0726C128.78 21.5342 129.536 21.9479 129.505 22.9506C129.489 23.6667 129.001 24.1282 128.025 24.3351C126.796 24.6057 125.836 24.3033 125.064 23.428L124.45 22.7278H122.545C121.002 22.7278 120.64 22.7755 120.64 22.9506C120.64 23.4121 121.269 24.6216 121.789 25.2263C122.277 25.7515 122.655 26.0062 124.135 26.7223C124.277 26.8019 125.049 26.9292 125.82 27.0247C127.253 27.1997 129.741 27.0406 130.371 26.7223C130.513 26.6586 130.922 26.4518 131.268 26.2926C132.166 25.8629 133.016 24.8921 133.331 23.9691C133.678 22.9187 133.583 21.4546 133.095 20.4361C132.512 19.2425 130.969 18.3831 128.67 17.9693C125.71 17.4441 125.663 17.4282 125.19 16.9667C124.623 16.3779 124.623 16.171 125.19 15.5344C125.647 15.0251 125.678 15.0092 126.938 15.0092C128.198 15.0092 128.229 15.0251 128.686 15.5344C128.938 15.8209 129.143 16.1551 129.143 16.2824C129.143 16.4733 129.473 16.5211 131.111 16.5211C133.284 16.5211 133.221 16.5688 132.843 15.4389C132.15 13.4337 130.371 12.4151 127.411 12.3037C126.497 12.2719 125.615 12.2719 125.442 12.3197ZM104.5 12.6539C103.807 12.8926 102.846 13.6883 102.547 14.2612C102.248 14.8342 101.98 14.5954 101.901 13.6406L101.823 12.7812H97.8862L97.8389 19.4653C97.8232 23.1415 97.8389 26.3085 97.8862 26.5154C97.9649 26.8655 98.0121 26.8655 99.9017 26.8337C100.988 26.8178 101.87 26.7223 101.933 26.6268C101.996 26.5472 102.059 24.8603 102.059 22.8869C102.059 19.7677 102.09 19.2106 102.358 18.5104C102.909 17.0622 104.09 16.2028 105.57 16.2028C105.98 16.2028 106.153 16.1232 106.2 15.9163C106.31 15.4548 106.326 13.3064 106.232 12.8289C106.137 12.447 106.059 12.3833 105.633 12.3992C105.35 12.4151 104.846 12.5265 104.5 12.6539ZM56.0009 12.8926C55.9536 13.004 55.9379 16.1391 55.9536 19.8631L56.0009 26.6268L57.8747 26.7064C59.0084 26.7541 59.8272 26.7223 59.9532 26.6268C60.1264 26.4995 60.1737 25.1468 60.1737 19.7358C60.1894 16.0437 60.1422 12.9403 60.0949 12.8607C59.9375 12.622 56.0796 12.6539 56.0009 12.8926Z" fill="#5C6D6F"/>
</svg>
