<svg width="109" height="37" viewBox="0 0 109 37" fill="none" xmlns="http://www.w3.org/2000/svg">
<path d="M104.026 7.01781H99.2731V0.364014H88.837L84.0378 7.01781H75.5095L72.6579 9.86944V7.01781H66.0041V0.364014H45.0921V7.01781H15.6728L10.8726 0.364014H0.416626V23.177L13.7242 36.4846H27.0318V32.6825L30.834 36.4846H56.4986V32.6825L60.3008 36.4846H72.6579V32.6825L76.46 36.4846H100.224L108.778 27.9297V11.7705L104.026 7.01781ZM16.5758 16.5232H9.92205V18.4243H16.5758V26.0287H6.11988L2.31771 22.2265V2.2651H9.92205V8.9189H16.5758V16.5232ZM45.0921 26.0287H22.2791L18.4769 22.2265V8.9189H26.0813V18.4243H27.9824V8.9189H35.5867V18.4243H37.4878V8.9189H45.0921V26.0287ZM54.5975 26.0287H46.9932V8.9189H54.5975V26.0287ZM54.5975 7.01781H46.9932V2.2651H54.5975V7.01781ZM70.7568 16.5232H64.103V18.4243H70.7568V26.0287H60.3008L56.4986 22.2265V2.2651H64.103V8.9189H70.7568V16.5232ZM87.8665 16.5232H80.2622V18.4243H87.8665V26.0287H76.46L72.6579 22.2265V12.7211L76.46 8.9189H87.8665V16.5232ZM106.877 26.0287H99.2731V16.5232H97.372V26.0287H89.7676V2.2651H97.372V8.9189H103.075L106.877 12.7211V26.0287Z" fill="#5C6D6F"/>
</svg>
