<svg width="136" height="35" viewBox="0 0 136 35" fill="none" xmlns="http://www.w3.org/2000/svg">
<path d="M44.3229 13.7289C44.3229 11.3097 41.9705 8.74045 37.8997 8.74045C33.3284 8.74045 28.3066 12.0939 27.5391 18.784C26.755 25.5409 30.9593 28.544 35.1969 28.544C39.4346 28.544 41.6535 26.8923 43.9225 24.6901C41.9705 22.2376 39.4513 23.3721 38.9674 23.6223C38.4336 23.8893 37.7495 24.2563 36.3481 24.2563C34.7131 24.2563 33.0447 23.5222 33.0447 20.4691C43.5221 19.4347 44.3229 16.148 44.3229 13.7289ZM39.1343 14.1293C39.0675 14.8801 38.7672 16.1647 33.4618 16.8821C34.5796 12.9114 36.7151 12.6111 37.6995 12.6111C38.6171 12.6111 39.201 13.3285 39.1343 14.1293ZM21.3828 14.78C21.3828 14.78 19.1305 21.8538 18.947 22.4378C18.8803 21.8372 17.2286 9.14086 17.2286 9.14086C13.3913 9.14086 11.3392 11.877 10.2548 14.7633C10.2548 14.7633 7.51866 21.8538 7.28509 22.4545C7.2684 21.9039 6.86799 14.8467 6.86799 14.8467C6.63442 11.3097 3.39778 9.15754 0.778442 9.15754L3.94835 28.3939C7.96912 28.3772 10.138 25.6577 11.2725 22.7714C11.2725 22.7714 13.6916 16.5151 13.7917 16.2314C13.8084 16.4984 15.5268 28.3939 15.5268 28.3939C19.5643 28.3939 21.7332 25.8412 22.901 23.0551L28.5568 9.15754C24.5694 9.15754 22.4673 11.877 21.3828 14.78ZM59.138 8.70708C56.6522 8.70708 54.7502 10.0585 53.1486 12.0438V12.0271L54.5834 0.465332C51.28 0.465332 48.5939 3.33493 48.0767 7.60596L45.5742 28.2437C47.4761 28.2437 49.4949 27.6931 50.5793 26.2917C51.547 27.543 52.9984 28.544 55.1506 28.544C60.723 28.544 64.5436 22.0707 64.5436 15.9979C64.5102 10.4589 61.8241 8.70708 59.138 8.70708ZM58.6208 18.6339C58.0369 22.0207 56.1517 24.323 54.3331 24.323C52.4979 24.323 51.7138 23.5055 51.7138 23.5055C52.0642 20.5358 52.281 18.7173 52.9484 17.149C53.6157 15.5808 55.2007 13.0782 56.8524 13.0782C58.4707 13.0782 59.2048 15.2304 58.6208 18.6339ZM78.4578 9.15754H74.5705L74.5872 8.95734C74.8541 6.42141 75.4547 5.08672 77.4401 4.86983C78.7915 4.73636 79.3921 4.03564 79.5422 3.26819C79.659 2.66758 80.026 0.582118 80.026 0.582118C72.2181 0.532067 69.7656 3.90218 69.1316 9.04076L69.1149 9.15754H69.0315C67.7635 9.15754 66.3621 10.5923 66.1285 12.4109L66.0451 13.0782H68.6478L66.4622 31.13L65.7948 34.3666C65.8783 34.3666 65.9784 34.3833 66.0618 34.3833C69.7155 34.2498 72.0512 31.3636 72.5684 27.1759L74.2702 13.0782H75.4881C76.6893 13.0782 78.0907 11.877 78.341 9.87494L78.4578 9.15754ZM98.6784 8.82387C94.1905 8.82387 89.9529 12.1272 88.6515 17.3159C87.3502 22.5045 89.3189 28.6441 95.9256 28.6441C102.516 28.6441 106.32 22.2542 106.32 16.9321C106.32 11.6434 102.733 8.82387 98.6784 8.82387ZM100.497 18.4671C100.263 20.8195 99.229 24.3898 96.3928 24.3898C93.5398 24.3898 93.9402 20.2188 94.2239 18.2335C94.5242 16.1146 95.7087 13.0949 98.2613 13.0949C100.547 13.0949 100.764 15.8143 100.497 18.4671ZM128.492 14.78C128.492 14.78 126.24 21.8538 126.056 22.4378C125.99 21.8372 124.338 9.14086 124.338 9.14086C120.501 9.14086 118.449 11.877 117.364 14.7633C117.364 14.7633 114.628 21.8538 114.394 22.4545C114.378 21.9039 113.977 14.8467 113.977 14.8467C113.744 11.3097 110.507 9.15754 107.888 9.15754L111.041 28.3939C115.062 28.3772 117.231 25.6577 118.365 22.7714C118.365 22.7714 120.784 16.5151 120.868 16.2314C120.901 16.4984 122.603 28.3939 122.603 28.3939C126.64 28.3939 128.809 25.8412 129.977 23.0551L135.633 9.15754C131.662 9.15754 129.56 11.877 128.492 14.78ZM82.1282 0.582118L78.8582 26.9591L78.1908 30.2124C78.2743 30.2124 78.3744 30.2291 78.4578 30.2291C81.978 30.179 84.4806 27.0925 84.9477 23.2052L86.833 8.0731C87.4002 3.45171 84.6474 0.582118 82.1282 0.582118Z" fill="#5C6D6F"/>
</svg>
